<?xml version="1.0" encoding="UTF-8" standalone="no"?>
<!-- Created with Inkscape (http://www.inkscape.org/) -->

<svg
   xmlns:dc="http://purl.org/dc/elements/1.1/"
   xmlns:cc="http://creativecommons.org/ns#"
   xmlns:rdf="http://www.w3.org/1999/02/22-rdf-syntax-ns#"
   xmlns:svg="http://www.w3.org/2000/svg"
   xmlns="http://www.w3.org/2000/svg"
   xmlns:sodipodi="http://sodipodi.sourceforge.net/DTD/sodipodi-0.dtd"
   xmlns:inkscape="http://www.inkscape.org/namespaces/inkscape"
   width="1000"
   height="1000"
   id="svg2"
   version="1.1"
   inkscape:version="0.48.4 r9939"
   sodipodi:docname="logo.svg"
   inkscape:export-filename="/home/railla/Desktop/amfm/logo_16x16.png"
   inkscape:export-xdpi="1.4400001"
   inkscape:export-ydpi="1.4400001">
  <defs
     id="defs4">
    <inkscape:perspective
       sodipodi:type="inkscape:persp3d"
       inkscape:vp_x="0 : 526.18109 : 1"
       inkscape:vp_y="0 : 1000 : 0"
       inkscape:vp_z="744.09448 : 526.18109 : 1"
       inkscape:persp3d-origin="372.04724 : 350.78739 : 1"
       id="perspective3051" />
  </defs>
  <sodipodi:namedview
     id="base"
     pagecolor="#ffffff"
     bordercolor="#666666"
     borderopacity="1.0"
     inkscape:pageopacity="0.0"
     inkscape:pageshadow="2"
     inkscape:zoom="0.35"
     inkscape:cx="268.24041"
     inkscape:cy="549.23317"
     inkscape:document-units="px"
     inkscape:current-layer="layer1"
     showgrid="false"
     inkscape:window-width="1598"
     inkscape:window-height="839"
     inkscape:window-x="0"
     inkscape:window-y="15"
     inkscape:window-maximized="0"
     showborder="true"
     borderlayer="false"
     inkscape:showpageshadow="false" />
  <metadata
     id="metadata7">
    <rdf:RDF>
      <cc:Work
         rdf:about="">
        <dc:format>image/svg+xml</dc:format>
        <dc:type
           rdf:resource="http://purl.org/dc/dcmitype/StillImage" />
        <dc:title></dc:title>
      </cc:Work>
    </rdf:RDF>
  </metadata>
  <g
     inkscape:groupmode="layer"
     id="layer2"
     inkscape:label="Layer"
     transform="translate(0,-52.362183)" />
  <g
     inkscape:groupmode="layer"
     id="layer3"
     inkscape:label="Layer#1"
     style="display:inline"
     transform="translate(0,-52.362183)" />
  <g
     inkscape:label="Layer 1"
     inkscape:groupmode="layer"
     id="layer1"
     style="display:inline"
     transform="translate(0,-52.362183)">
    <path
       style="fill:#00eb8e;fill-opacity:1"
       d="M 88.659585,883.03765 C 75.776936,796.08062 164.5083,596.71922 232.6766,475.67218 300.84481,354.62517 418.33329,167.21509 498.27329,150.50134 c 0.66362,0.65089 -402.684846,730.68419 -407.36664,737.306 -2.227611,3.1507 -2.452454,2.67342 -2.247065,-4.76969 z"
       id="path2997"
       inkscape:connector-curvature="0"
       sodipodi:nodetypes="czcsc" />
    <path
       style="fill:#00ff00"
       d=""
       id="path3001"
       inkscape:connector-curvature="0" />
    <path
       style="fill:#00ff00"
       d=""
       id="path3001-5"
       inkscape:connector-curvature="0" />
    <path
       style="fill:#00eb8e;fill-opacity:1;display:inline"
       d="m 518.86207,151.90634 c 76.75066,28.93869 196.29599,208.00713 262.06282,330.35563 65.7668,122.34848 161.89043,323.16095 137.32779,407.27566 -0.84503,0.32399 -401.19198,-730.14937 -404.33527,-737.7504 -1.49559,-3.61658 -1.00086,-3.6047 4.94467,0.11901 z"
       id="path2997-1"
       inkscape:connector-curvature="0"
       sodipodi:nodetypes="czcsc" />
    <path
       style="fill:#00eb8e;fill-opacity:1;display:inline"
       d="m 892.75889,903.60403 c -62.06737,57.02284 -265.32066,78.06395 -396.09737,77.58275 -130.77668,-0.48092 -339.40841,-12.30702 -393.81584,-77.7875 0.17229,-0.95286 784.87862,-5.26169 792.52373,-4.35175 3.63756,0.4329 3.37638,0.88887 -2.61052,4.5565 z"
       id="path2997-9"
       inkscape:connector-curvature="0"
       sodipodi:nodetypes="czcsc" />
    <path
       style="fill:#00eb8e;fill-opacity:1;display:inline"
       d="M 487.05685,216.2355 C 499.58177,291.10203 425.07884,464.69042 367.36841,570.32395 309.65803,675.95749 209.88103,839.70041 140.35917,855.4465 139.77043,854.89545 481.03693,217.9486 485.0254,212.15431 c 1.89774,-2.75698 2.10103,-2.34857 2.03145,4.08119 z"
       id="path2997-2"
       inkscape:connector-curvature="0"
       sodipodi:nodetypes="czcsc"
       inkscape:transform-center-y="-17.308371"
       inkscape:transform-center-x="-0.077503877" />
    <path
       style="fill:#00eb8e;fill-opacity:1;display:inline"
       d="M 861.00705,855.16736 C 794.71261,830.11934 692.27371,674.48263 636.06377,568.11504 579.85383,461.74747 497.83295,287.1433 519.62074,213.8892 c 0.73387,-0.2835 342.99225,634.76296 345.66804,641.37288 1.27315,3.14504 0.8447,3.13555 -4.28175,-0.0939 z"
       id="path2997-2-6"
       inkscape:connector-curvature="0"
       sodipodi:nodetypes="czcsc" />
    <path
       style="fill:#00eb8e;fill-opacity:1;display:inline"
       d="m 157.71166,865.61315 c 53.91736,-48.8874 229.91628,-64.69254 343.10924,-62.6538 113.19286,2.03947 293.73507,14.92119 340.60426,72.6163 -0.15246,0.82764 -679.37445,-5.13987 -685.98861,-6.02697 -3.14704,-0.42208 -2.91935,-0.81587 2.27515,-3.93552 z"
       id="path2997-2-6-9"
       inkscape:connector-curvature="0"
       sodipodi:nodetypes="czcsc" />
    <path
       style="fill:#00eb8e;fill-opacity:1;display:inline"
       d="M 5.9252023,805.62465 C 22.92531,789.84866 78.077927,785.87122 113.52027,787.34667 c 35.44221,1.47545 91.94964,7.01191 106.49069,26.41273 -0.0495,0.27251 -212.7384219,-6.51004 -214.8075267,-6.8501 -0.9845794,-0.16171 -0.9122506,-0.2904 0.721769,-1.28465 z"
       id="path2997-0"
       inkscape:connector-curvature="0"
       sodipodi:nodetypes="czcsc" />
    <path
       style="fill:#11b500;fill-opacity:1;display:inline"
       d=""
       id="path3001-3"
       inkscape:connector-curvature="0" />
    <path
       style="fill:#11b500;fill-opacity:1;display:inline"
       d=""
       id="path3001-5-3"
       inkscape:connector-curvature="0" />
    <path
       style="fill:#00eb8e;fill-opacity:1;display:inline"
       d="m 222.52405,819.56181 c 4.25447,24.97427 -18.03016,82.77998 -35.43272,117.94439 -17.40265,35.16448 -47.58263,89.6631 -69.09155,94.8456 -0.1861,-0.184 102.66352,-212.22461 103.87362,-214.15269 0.57577,-0.9174 0.64087,-0.78104 0.65027,1.36296 z"
       id="path2997-1-6"
       inkscape:connector-curvature="0"
       sodipodi:nodetypes="czcsc" />
    <path
       style="fill:#00eb8e;fill-opacity:1;display:inline"
       d="M 111.47754,1027.3971 C 90.683929,1018.5487 58.341752,966.1934 40.557072,930.52886 22.772426,894.86441 -3.2139191,836.40752 3.472375,812.35896 c 0.2290728,-0.0874 108.495955,212.89664 109.345385,215.10594 0.40419,1.0514 0.27005,1.0444 -1.34022,-0.068 z"
       id="path2997-9-4"
       inkscape:connector-curvature="0"
       sodipodi:nodetypes="czcsc" />
    <path
       style="fill:#00eb8e;fill-opacity:1;display:inline"
       d="m 204.29347,819.98137 c -14.44031,13.9727 -62.08571,18.18647 -92.77182,17.38275 -30.686105,-0.80367 -79.664394,-4.8585 -92.571397,-21.56024 0.03849,-0.23808 184.150157,2.7806 185.945957,3.0487 0.85447,0.12747 0.79414,0.24048 -0.60274,1.12879 z"
       id="path2997-2-9"
       inkscape:connector-curvature="0"
       sodipodi:nodetypes="czcsc"
       inkscape:transform-center-y="6.5231078"
       inkscape:transform-center-x="-3.6173726" />
    <path
       style="fill:#00eb8e;fill-opacity:1;display:inline"
       d="m 117.58525,1011.9203 c -3.66363,-21.57907 15.90513,-71.42237 31.16688,-101.73064 15.26172,-30.30825 41.71596,-77.2702 60.5019,-81.67564 0.16188,0.15949 -90.04334,182.92418 -91.10348,184.58508 -0.50442,0.7902 -0.56093,0.6723 -0.56895,-1.1766 z"
       id="path2997-2-6-8"
       inkscape:connector-curvature="0"
       sodipodi:nodetypes="czcsc" />
    <path
       style="fill:#00eb8e;fill-opacity:1;display:inline"
       d="m 19.130128,821.96168 c 17.923452,7.778 45.407962,53.45372 60.451294,84.5518 15.039681,31.10036 36.959438,82.05825 30.921868,102.95642 -0.19931,0.075 -91.820087,-185.64675 -92.533462,-187.5722 -0.338999,-0.91642 -0.223299,-0.90977 1.1603,0.0639 z"
       id="path2997-2-6-9-4"
       inkscape:connector-curvature="0"
       sodipodi:nodetypes="czcsc" />
    <path
       style="fill:#00eb8e;fill-opacity:1;display:inline"
       d="m 396.89215,99.508339 c 17.0001,-15.775984 72.15271,-19.753422 107.59507,-18.27798 35.44221,1.475453 91.94964,7.011909 106.49068,26.412731 -0.0495,0.27251 -212.73841,-6.51004 -214.80752,-6.85009 -0.98457,-0.16172 -0.91224,-0.29041 0.72177,-1.284661 z"
       id="path2997-0-2"
       inkscape:connector-curvature="0"
       sodipodi:nodetypes="czcsc" />
    <path
       style="fill:#00eb8e;fill-opacity:1;display:inline"
       d="m 613.49099,113.4455 c 4.25448,24.97428 -18.03015,82.77998 -35.4327,117.94439 -17.40267,35.16448 -47.58264,89.6631 -69.09155,94.84562 -0.18611,-0.18403 102.66351,-212.22463 103.8736,-214.15271 0.57577,-0.9174 0.64088,-0.78104 0.65028,1.36296 z"
       id="path2997-1-6-5"
       inkscape:connector-curvature="0"
       sodipodi:nodetypes="czcsc" />
    <path
       style="fill:#00eb8e;fill-opacity:1;display:inline"
       d="m 502.4445,321.28086 c -20.79364,-8.84842 -53.1358,-61.20377 -70.92047,-96.86829 -17.78466,-35.66447 -43.771,-94.12136 -37.0847,-118.16992 0.22907,-0.0875 108.49594,212.89668 109.34538,215.10597 0.40418,1.05134 0.27005,1.04449 -1.34021,-0.0684 z"
       id="path2997-9-4-2"
       inkscape:connector-curvature="0"
       sodipodi:nodetypes="czcsc" />
    <path
       style="fill:#00eb8e;fill-opacity:1;display:inline"
       d="m 595.26041,113.86506 c -14.4403,13.9727 -62.08571,18.18647 -92.77181,17.38275 -30.68611,-0.80367 -79.6644,-4.8585 -92.5714,-21.56024 0.0384,-0.23808 184.15016,2.7806 185.94597,3.0487 0.85445,0.12747 0.79414,0.24048 -0.60276,1.12879 z"
       id="path2997-2-9-1"
       inkscape:connector-curvature="0"
       sodipodi:nodetypes="czcsc"
       inkscape:transform-center-y="6.523107"
       inkscape:transform-center-x="-3.6173737" />
    <path
       style="fill:#00eb8e;fill-opacity:1;display:inline"
       d="m 508.5522,305.80397 c -3.66363,-21.5791 15.90513,-71.42235 31.16687,-101.73062 15.26172,-30.30825 41.71598,-77.27019 60.50191,-81.67564 0.16187,0.15949 -90.04335,182.92427 -91.10349,184.5851 -0.50441,0.79027 -0.56092,0.67227 -0.56895,-1.17652 z"
       id="path2997-2-6-8-4"
       inkscape:connector-curvature="0"
       sodipodi:nodetypes="czcsc" />
    <path
       style="fill:#00eb8e;fill-opacity:1;display:inline"
       d="m 410.09708,115.84537 c 17.92345,7.778 45.40796,53.45372 60.45128,84.5518 15.0397,31.10036 36.95945,82.05822 30.92189,102.95647 -0.19933,0.0747 -91.8201,-185.6468 -92.53346,-187.57225 -0.339,-0.91642 -0.22331,-0.90977 1.16029,0.0639 z"
       id="path2997-2-6-9-4-4"
       inkscape:connector-curvature="0"
       sodipodi:nodetypes="czcsc" />
    <path
       style="fill:#00eb8e;fill-opacity:1;display:inline"
       d="m 774.09674,805.62341 c 17.0001,-15.77597 72.15271,-19.75341 107.59506,-18.27798 35.44221,1.47546 91.94965,7.01192 106.49069,26.41274 -0.0495,0.27251 -212.73843,-6.51004 -214.80752,-6.8501 -0.98459,-0.16171 -0.91226,-0.2904 0.72177,-1.28466 z"
       id="path2997-0-6"
       inkscape:connector-curvature="0"
       sodipodi:nodetypes="czcsc" />
    <path
       style="fill:#00eb8e;fill-opacity:1;display:inline"
       d="m 990.69558,819.56059 c 4.25443,24.97426 -18.03016,82.77996 -35.43272,117.94439 -17.40265,35.16448 -47.58263,89.66302 -69.09154,94.84562 -0.18611,-0.1841 102.66351,-212.22464 103.87361,-214.15273 0.57577,-0.9174 0.64087,-0.78104 0.65027,1.36298 z"
       id="path2997-1-6-6"
       inkscape:connector-curvature="0"
       sodipodi:nodetypes="czcsc" />
    <path
       style="fill:#00eb8e;fill-opacity:1;display:inline"
       d="m 879.64907,1027.3959 c -20.79362,-8.8484 -53.13578,-61.20374 -70.92046,-96.86826 -17.78465,-35.66447 -43.771,-94.12134 -37.0847,-118.1699 0.22907,-0.0875 108.49595,212.89666 109.34538,215.10596 0.40419,1.0513 0.27005,1.0444 -1.34022,-0.068 z"
       id="path2997-9-4-3"
       inkscape:connector-curvature="0"
       sodipodi:nodetypes="czcsc" />
    <path
       style="fill:#00eb8e;fill-opacity:1;display:inline"
       d="m 972.465,819.98014 c -14.44031,13.9727 -62.08571,18.18646 -92.77182,17.38275 -30.6861,-0.80367 -79.66439,-4.8585 -92.5714,-21.56024 0.0384,-0.23808 184.15017,2.78061 185.94596,3.0487 0.85447,0.12747 0.79414,0.24049 -0.60274,1.12879 z"
       id="path2997-2-9-0"
       inkscape:connector-curvature="0"
       sodipodi:nodetypes="czcsc"
       inkscape:transform-center-y="6.5231068"
       inkscape:transform-center-x="-3.6173702" />
    <path
       style="fill:#00eb8e;fill-opacity:1;display:inline"
       d="m 885.75678,1011.919 c -3.66363,-21.57907 15.90513,-71.4223 31.16688,-101.73056 15.26172,-30.30827 41.71596,-77.2702 60.5019,-81.67566 0.16188,0.15949 -90.04334,182.92422 -91.10348,184.58502 -0.50442,0.7903 -0.56093,0.6723 -0.56895,-1.1764 z"
       id="path2997-2-6-8-3"
       inkscape:connector-curvature="0"
       sodipodi:nodetypes="czcsc" />
    <path
       style="fill:#00eb8e;fill-opacity:1;display:inline"
       d="m 787.30166,821.96046 c 17.92345,7.77799 45.40795,53.45372 60.45128,84.55178 15.0397,31.10036 36.95945,82.0582 30.92188,102.95636 -0.19931,0.075 -91.82008,-185.64669 -92.53346,-187.57213 -0.339,-0.91641 -0.2233,-0.90977 1.1603,0.0639 z"
       id="path2997-2-6-9-4-9"
       inkscape:connector-curvature="0"
       sodipodi:nodetypes="czcsc" />
  </g>
</svg>
